<svg width="18" height="18" viewBox="0 0 18 18" fill="none" xmlns="http://www.w3.org/2000/svg">
<g clip-path="url(#clip0_111_14)">
<mask id="mask0_111_14" style="mask-type:luminance" maskUnits="userSpaceOnUse" x="0" y="0" width="18" height="18">
<path d="M18 0H0V18H18V0Z" fill="white"/>
</mask>
<g mask="url(#mask0_111_14)">
<path d="M16.875 7.875H10.125V1.125C10.125 0.503684 9.62132 0 9 0C8.37868 0 7.875 0.503684 7.875 1.125V7.875H1.125C0.503684 7.875 0 8.37868 0 9C0 9.62132 0.503684 10.125 1.125 10.125H7.875V16.875C7.875 17.4963 8.37868 18 9 18C9.62132 18 10.125 17.4963 10.125 16.875V10.125H16.875C17.4963 10.125 18 9.62132 18 9C18 8.37868 17.4963 7.875 16.875 7.875Z" fill="white"/>
</g>
</g>
<defs>
<clipPath id="clip0_111_14">
<rect width="18" height="18" fill="white"/>
</clipPath>
</defs>
</svg>
