<svg width="26" height="25" viewBox="0 0 26 25" fill="none" xmlns="http://www.w3.org/2000/svg">
<path d="M7.67753 21.6C7.08903 21.6 6.58542 21.4043 6.16669 21.013C5.74725 20.621 5.53753 20.15 5.53753 19.6V6.60004C5.23436 6.60004 4.98006 6.50437 4.77462 6.31304C4.56989 6.12104 4.46753 5.88337 4.46753 5.60004C4.46753 5.3167 4.56989 5.07904 4.77462 4.88704C4.98006 4.6957 5.23436 4.60004 5.53753 4.60004H9.81753C9.81753 4.3167 9.92025 4.07904 10.1257 3.88704C10.3304 3.6957 10.5844 3.60004 10.8875 3.60004H15.1675C15.4707 3.60004 15.725 3.6957 15.9304 3.88704C16.1352 4.07904 16.2375 4.3167 16.2375 4.60004H20.5175C20.8207 4.60004 21.0746 4.6957 21.2794 4.88704C21.4848 5.07904 21.5875 5.3167 21.5875 5.60004C21.5875 5.88337 21.4848 6.12104 21.2794 6.31304C21.0746 6.50437 20.8207 6.60004 20.5175 6.60004V19.6C20.5175 20.15 20.3082 20.621 19.8894 21.013C19.47 21.4043 18.966 21.6 18.3775 21.6H7.67753ZM7.67753 6.60004V19.6H18.3775V6.60004H7.67753ZM9.81753 16.6C9.81753 16.8833 9.92025 17.1207 10.1257 17.312C10.3304 17.504 10.5844 17.6 10.8875 17.6C11.1907 17.6 11.445 17.504 11.6504 17.312C11.8552 17.1207 11.9575 16.8833 11.9575 16.6V9.60004C11.9575 9.3167 11.8552 9.07904 11.6504 8.88704C11.445 8.6957 11.1907 8.60004 10.8875 8.60004C10.5844 8.60004 10.3304 8.6957 10.1257 8.88704C9.92025 9.07904 9.81753 9.3167 9.81753 9.60004V16.6ZM14.0975 16.6C14.0975 16.8833 14.2002 17.1207 14.4057 17.312C14.6104 17.504 14.8644 17.6 15.1675 17.6C15.4707 17.6 15.725 17.504 15.9304 17.312C16.1352 17.1207 16.2375 16.8833 16.2375 16.6V9.60004C16.2375 9.3167 16.1352 9.07904 15.9304 8.88704C15.725 8.6957 15.4707 8.60004 15.1675 8.60004C14.8644 8.60004 14.6104 8.6957 14.4057 8.88704C14.2002 9.07904 14.0975 9.3167 14.0975 9.60004V16.6Z" fill="white"/>
</svg>
