<svg width="24" height="24" viewBox="0 0 24 24" fill="none" xmlns="http://www.w3.org/2000/svg">
<path d="M4.3077 20.5C3.80257 20.5 3.375 20.325 3.025 19.975C2.675 19.625 2.5 19.1974 2.5 18.6923V8.30771C2.5 7.80257 2.675 7.37501 3.025 7.02501C3.375 6.67501 3.80257 6.50001 4.3077 6.50001H8.5V4.80773C8.5 4.30261 8.675 3.87506 9.025 3.52506C9.375 3.17506 9.80257 3.00006 10.3077 3.00006H13.6923C14.1974 3.00006 14.625 3.17506 14.975 3.52506C15.325 3.87506 15.5 4.30261 15.5 4.80773V6.50001H19.6923C20.1974 6.50001 20.625 6.67501 20.975 7.02501C21.325 7.37501 21.5 7.80257 21.5 8.30771V18.6923C21.5 19.1974 21.325 19.625 20.975 19.975C20.625 20.325 20.1974 20.5 19.6923 20.5H4.3077ZM4.3077 19H19.6923C19.7692 19 19.8397 18.968 19.9038 18.9039C19.9679 18.8397 20 18.7692 20 18.6923V8.30771C20 8.23077 19.9679 8.16025 19.9038 8.09613C19.8397 8.03203 19.7692 7.99998 19.6923 7.99998H4.3077C4.23077 7.99998 4.16024 8.03203 4.09613 8.09613C4.03202 8.16025 3.99998 8.23077 3.99998 8.30771V18.6923C3.99998 18.7692 4.03202 18.8397 4.09613 18.9039C4.16024 18.968 4.23077 19 4.3077 19ZM9.99998 6.50001H14V4.80773C14 4.7308 13.9679 4.66028 13.9038 4.59618C13.8397 4.53206 13.7692 4.50001 13.6923 4.50001H10.3077C10.2308 4.50001 10.1602 4.53206 10.0961 4.59618C10.032 4.66028 9.99998 4.7308 9.99998 4.80773V6.50001Z" fill="#1DA1F2"/>
</svg>
